<svg width="50" height="50" viewBox="0 0 50 50" fill="none" xmlns="http://www.w3.org/2000/svg">
<rect width="50" height="50" rx="15" fill="#FAFAFA"/>
<path opacity="0.5" d="M27.2 16H22.8C18.6516 16 16.5775 16 15.2887 17.318C14 18.636 14 20.7574 14 25C14 29.2426 14 31.364 15.2887 32.682C16.5775 34 18.6516 34 22.8 34H27.2C31.3484 34 33.4225 34 34.7113 32.682C36 31.364 36 29.2426 36 25C36 20.7574 36 18.636 34.7113 17.318C33.4225 16 31.3484 16 27.2 16Z" fill="#0000DE"/>
<path d="M32.1274 21.034C32.4774 20.7423 32.5247 20.2221 32.233 19.8721C31.9413 19.522 31.4211 19.4747 31.0711 19.7664L28.6963 21.7454C27.67 22.6006 26.9575 23.1925 26.356 23.5794C25.7737 23.9539 25.3788 24.0796 24.9992 24.0796C24.6197 24.0796 24.2248 23.9539 23.6425 23.5794C23.0409 23.1925 22.3284 22.6006 21.3022 21.7454L18.9274 19.7664C18.5774 19.4747 18.0571 19.522 17.7655 19.8721C17.4738 20.2221 17.5211 20.7423 17.8711 21.034L20.2872 23.0475C21.2622 23.86 22.0525 24.5185 22.7499 24.9671C23.4765 25.4344 24.1841 25.7296 24.9992 25.7296C25.8144 25.7296 26.522 25.4344 27.2485 24.9671C27.946 24.5185 28.7363 23.86 29.7113 23.0474L32.1274 21.034Z" fill="#0000DE"/>
</svg>
