<svg width="50" height="50" viewBox="0 0 50 50" fill="none" xmlns="http://www.w3.org/2000/svg">
<rect width="50" height="50" rx="15" fill="#FAFAFA"/>
<path fill-rule="evenodd" clip-rule="evenodd" d="M15.0273 24.25C15.4109 19.0775 19.7291 15 24.9996 15C24.1688 15 23.429 15.3642 22.8204 15.9211C22.2149 16.4753 21.7032 17.2488 21.2893 18.1632C20.873 19.0829 20.5496 20.1587 20.3308 21.3261C20.1553 22.2619 20.0485 23.2485 20.0129 24.25H15.0273ZM15.0273 25.75H20.0129C20.0485 26.7515 20.1553 27.7381 20.3308 28.6739C20.5496 29.8413 20.873 30.9171 21.2893 31.8368C21.7032 32.7512 22.2149 33.5247 22.8204 34.0789C23.429 34.6358 24.1688 35 24.9996 35C19.7291 35 15.4109 30.9226 15.0273 25.75Z" fill="#0000DE"/>
<path d="M24.9996 15C25.8305 15 26.5703 15.3642 27.1788 15.9211C27.7844 16.4753 28.2961 17.2488 28.7099 18.1632C29.1263 19.0829 29.4496 20.1587 29.6685 21.3261C29.844 22.2619 29.9507 23.2485 29.9863 24.25H34.9719C34.5884 19.0775 30.2702 15 24.9996 15Z" fill="#0000DE"/>
<path d="M29.6685 28.6739C29.4496 29.8413 29.1263 30.9171 28.7099 31.8368C28.2961 32.7512 27.7844 33.5247 27.1788 34.0789C26.5703 34.6358 25.8305 35 24.9996 35C30.2702 35 34.5884 30.9226 34.9719 25.75H29.9863C29.9507 26.7515 29.844 27.7381 29.6685 28.6739Z" fill="#0000DE"/>
<g opacity="0.5">
<path d="M25.0007 16.3955C24.7257 16.3955 24.3704 16.5125 23.9573 16.8906C23.5411 17.2714 23.1245 17.8683 22.7564 18.6815C22.3907 19.4894 22.0938 20.4646 21.8895 21.5544C21.7286 22.4126 21.6288 23.3223 21.5938 24.2502H28.4076C28.3726 23.3223 28.2727 22.4126 28.1118 21.5544C27.9075 20.4646 27.6106 19.4894 27.245 18.6815C26.8769 17.8683 26.4602 17.2714 26.0441 16.8906C25.631 16.5125 25.2757 16.3955 25.0007 16.3955Z" fill="#0000DE"/>
<path d="M21.8895 28.446C22.0938 29.5358 22.3907 30.511 22.7564 31.3188C23.1245 32.132 23.5411 32.7289 23.9573 33.1097C24.3704 33.4878 24.7257 33.6048 25.0007 33.6048C25.2757 33.6048 25.631 33.4878 26.0441 33.1097C26.4602 32.7289 26.8769 32.132 27.245 31.3188C27.6106 30.511 27.9075 29.5358 28.1118 28.446C28.2727 27.5877 28.3726 26.678 28.4076 25.7502H21.5938C21.6288 26.678 21.7286 27.5877 21.8895 28.446Z" fill="#0000DE"/>
</g>
</svg>
