<svg width="50" height="50" viewBox="0 0 50 50" fill="none" xmlns="http://www.w3.org/2000/svg">
<rect width="50" height="50" rx="15" fill="#FAFAFA"/>
<path opacity="0.5" d="M28.5562 27.5477L28.1007 28.0272C28.1007 28.0272 27.0181 29.167 24.0631 26.0559C21.1081 22.9448 22.1907 21.8051 22.1907 21.8051L22.4775 21.5031C23.1841 20.7592 23.2507 19.565 22.6342 18.6931L21.3733 16.9096C20.6103 15.8305 19.136 15.6879 18.2615 16.6086L16.6918 18.2611C16.2582 18.7177 15.9677 19.3095 16.0029 19.9659C16.093 21.6455 16.8107 25.259 20.8154 29.4752C25.0621 33.9462 29.0468 34.1239 30.6763 33.9631C31.1917 33.9122 31.6399 33.6343 32.0011 33.254L33.4217 31.7584C34.3806 30.7489 34.1102 29.0182 32.8833 28.312L30.9728 27.2123C30.1672 26.7486 29.1858 26.8848 28.5562 27.5477Z" fill="#0000DE"/>
<path d="M26.2595 14.8798C26.3257 14.4709 26.7122 14.1936 27.1211 14.2598C27.1464 14.2646 27.2279 14.2798 27.2705 14.2893C27.3559 14.3083 27.4749 14.3376 27.6233 14.3808C27.9201 14.4673 28.3347 14.6097 28.8323 14.8378C29.8286 15.2946 31.1544 16.0936 32.5302 17.4694C33.906 18.8452 34.705 20.171 35.1617 21.1673C35.3899 21.6649 35.5323 22.0795 35.6187 22.3763C35.6619 22.5247 35.6912 22.6437 35.7102 22.729C35.7197 22.7717 35.7267 22.8059 35.7315 22.8313L35.7373 22.8624C35.8034 23.2713 35.5286 23.6739 35.1197 23.7401C34.712 23.8061 34.3279 23.53 34.2601 23.1231C34.258 23.1121 34.2522 23.0828 34.2461 23.0551C34.2337 22.9997 34.2124 22.9119 34.1786 22.7957C34.1109 22.5634 33.9934 22.2181 33.7982 21.7924C33.4084 20.9421 32.7074 19.7679 31.4695 18.53C30.2317 17.2922 29.0575 16.5912 28.2072 16.2013C27.7815 16.0062 27.4362 15.8886 27.2038 15.821C27.0877 15.7871 26.9417 15.7536 26.8863 15.7413C26.4793 15.6735 26.1935 15.2876 26.2595 14.8798Z" fill="#0000DE"/>
<path fill-rule="evenodd" clip-rule="evenodd" d="M26.4857 18.3293C26.5995 17.931 27.0146 17.7004 27.4129 17.8142L27.2069 18.5353C27.4129 17.8142 27.4129 17.8142 27.4129 17.8142L27.4144 17.8146L27.4159 17.815L27.4192 17.816L27.427 17.8183L27.4468 17.8245C27.4618 17.8293 27.4807 17.8356 27.5031 17.8436C27.548 17.8595 27.6074 17.8822 27.6802 17.9134C27.8259 17.9758 28.0249 18.0722 28.2695 18.2169C28.7589 18.5066 29.4271 18.9878 30.2121 19.7728C30.9971 20.5577 31.4782 21.2259 31.7679 21.7154C31.9126 21.9599 32.009 22.159 32.0715 22.3047C32.1027 22.3775 32.1254 22.4368 32.1413 22.4817C32.1493 22.5042 32.1555 22.523 32.1604 22.5381L32.1665 22.5579L32.1688 22.5656L32.1698 22.569L32.1702 22.5705C32.1702 22.5705 32.1707 22.5719 31.4495 22.778L32.1707 22.5719C32.2845 22.9702 32.0538 23.3853 31.6556 23.4991C31.2607 23.6119 30.8492 23.3862 30.7313 22.9941L30.7276 22.9833C30.7223 22.9683 30.7113 22.9387 30.6928 22.8955C30.6558 22.8092 30.5887 22.668 30.4771 22.4794C30.2541 22.1026 29.8514 21.5334 29.1514 20.8334C28.4515 20.1335 27.8822 19.7308 27.5055 19.5078C27.3169 19.3962 27.1757 19.3291 27.0893 19.2921C27.0461 19.2736 27.0165 19.2625 27.0015 19.2572L26.9907 19.2535C26.5987 19.1356 26.3729 18.7242 26.4857 18.3293Z" fill="#0000DE"/>
</svg>
