<svg width="84" height="84" viewBox="0 0 84 84" fill="none" xmlns="http://www.w3.org/2000/svg">
<circle cx="42" cy="42" r="42" fill="#0000DE" fill-opacity="0.4"/>
<circle cx="42.0025" cy="42.0016" r="31.7838" fill="#0000DE"/>
<path fill-rule="evenodd" clip-rule="evenodd" d="M38.4184 28.6631H39.6955C43.3075 28.6631 45.1134 28.6631 46.2355 29.7852C47.3576 30.9073 47.3576 32.7133 47.3576 36.3252V46.8608H49.3644C50.9009 46.8608 52.1465 48.1063 52.1465 49.6429V49.7341C52.1465 50.263 52.5753 50.6918 53.1043 50.6918C53.6332 50.6918 54.062 50.263 54.062 49.7341V43.6682L52.4985 43.147C51.7163 42.8862 51.1887 42.1542 51.1887 41.3297V38.2408C51.1887 37.1829 52.0463 36.3252 53.1043 36.3252H54.062V35.8431C54.062 35.6068 54.0617 35.5256 54.0575 35.4514C54.0149 34.6921 53.6729 33.9807 53.1067 33.4731C53.0513 33.4234 52.9881 33.3724 52.8036 33.2248L51.2289 31.9651C50.8159 31.6346 50.7489 31.0319 51.0793 30.6189C51.4098 30.2058 52.0125 30.1388 52.4255 30.4693L54.0209 31.7455C54.1771 31.8705 54.2849 31.9567 54.3853 32.0467C55.3291 32.8928 55.899 34.0785 55.97 35.344C55.9776 35.4786 55.9776 35.6166 55.9776 35.8167V49.7341C55.9776 51.321 54.6911 52.6074 53.1043 52.6074C51.5174 52.6074 50.2309 51.321 50.2309 49.7341V49.6429C50.2309 49.1643 49.843 48.7763 49.3644 48.7763H47.3576V53.2459H48.7923C49.3213 53.2459 49.7501 53.6747 49.7501 54.2036C49.7501 54.7326 49.3213 55.1614 48.7923 55.1614H29.4793C28.9503 55.1614 28.5215 54.7326 28.5215 54.2036C28.5215 53.6747 28.9503 53.2459 29.4793 53.2459H30.7563V36.3252C30.7563 32.7133 30.7563 30.9073 31.8784 29.7852C33.0005 28.6631 34.8065 28.6631 38.4184 28.6631ZM36.1836 46.8607C35.6547 46.8607 35.2259 47.2895 35.2259 47.8185C35.2259 48.3475 35.6547 48.7763 36.1836 48.7763H42.5688C43.0977 48.7763 43.5266 48.3475 43.5266 47.8185C43.5266 47.2895 43.0977 46.8607 42.5688 46.8607H36.1836ZM41.2918 33.7712H37.4607C36.2567 33.7712 35.6547 33.7712 35.2807 34.1452C34.9066 34.5193 34.9066 35.1213 34.9066 36.3252C34.9066 37.5292 34.9066 38.1312 35.2807 38.5053C35.6547 38.8793 36.2567 38.8793 37.4607 38.8793H41.2918C42.4957 38.8793 43.0977 38.8793 43.4718 38.5053C43.8458 38.1312 43.8458 37.5292 43.8458 36.3252C43.8458 35.1213 43.8458 34.5193 43.4718 34.1452C43.0977 33.7712 42.4957 33.7712 41.2918 33.7712Z" fill="white"/>
</svg>
